<svg xmlns="http://www.w3.org/2000/svg" xmlns:xlink="http://www.w3.org/1999/xlink" version="1.1" x="0px" y="0px" viewBox="0 0 64 80" enable-background="new 0 0 64 64" xml:space="preserve"><g><path d="M56.352,39.396c-0.587-0.589-1.479-0.754-2.237-0.408c-2.862,1.293-5.908,1.948-9.052,1.948c-12.13,0-22-9.869-22-22   c0-3.145,0.656-6.189,1.949-9.049c0.343-0.758,0.181-1.65-0.408-2.238c-0.588-0.588-1.48-0.751-2.238-0.408   C13.07,11.443,7.063,20.744,7.063,30.937c0,14.337,11.664,26,26,26c10.192,0,19.494-6.007,23.697-15.302   C57.103,40.876,56.94,39.985,56.352,39.396z" fill='#337294' stroke='#337294' stroke-width='2'/></g></svg>