<svg xmlns:dc="http://purl.org/dc/elements/1.1/" xmlns:cc="http://creativecommons.org/ns#" xmlns:rdf="http://www.w3.org/1999/02/22-rdf-syntax-ns#" xmlns:svg="http://www.w3.org/2000/svg" xmlns="http://www.w3.org/2000/svg" xmlns:sodipodi="http://sodipodi.sourceforge.net/DTD/sodipodi-0.dtd" xmlns:inkscape="http://www.inkscape.org/namespaces/inkscape" version="1.1" x="0px" y="0px" viewBox="0 0 100 125"><g transform="translate(0,-952.36218)"><path style="text-indent:0;text-transform:none;direction:ltr;block-progression:tb;baseline-shift:baseline;color:#000000;enable-background:accumulate;" d="M 33.71875,958.375 A 2.0001999,2.0001999 0 0 0 33.3125,958.5 C 15.976353,964.92469 6,981.71251 6,1001.0312 c 0,25.0161 20.327629,45.3438 45.34375,45.3438 19.318689,0 36.106535,-9.9763 42.53125,-27.3125 A 2.0001999,2.0001999 0 0 0 91.25,1016.5 c -4.68774,1.8851 -9.812256,2.875 -15.21875,2.875 C 53.579029,1019.375 33,998.79595 33,976.34375 c 0,-5.40651 0.958602,-10.56233 2.84375,-15.25 a 2.0001999,2.0001999 0 0 0 -2.125,-2.71875 z m -2.84375,5.65625 c -1.109868,3.94463 -1.875,8.02761 -1.875,12.3125 0,24.86155 22.169629,47.03125 47.03125,47.03125 4.283219,0 8.369239,-0.766 12.3125,-1.875 -6.719672,13.2646 -20.588457,20.875 -37,20.875 C 28.489395,1042.375 10,1023.8856 10,1001.0312 c 0,-16.42189 7.59484,-30.28519 20.875,-36.99995 z" fill="#000000" fill-opacity="1" stroke="#B3FFFFFF" stroke-width='4' marker="none" visibility="visible" display="inline" overflow="visible"/></g></svg>