<svg width="464" height="454" xmlns="http://www.w3.org/2000/svg"><g fill="none"><path fill="#7FCCCB" d="M.001.001h464v233h-464z"/><path d="M464.001 233.001h-464l195.392-31.395c113.804-18.28 213.16-92.853 268.608-201.605v233z" fill="#2BB3CE"/><path d="M384.001 232.001c4.858-34.073 29.304-62.1 62.4-71.544l1.6-.456a168.801 168.801 0 0 1-91.824-128.656L352.001.001h112v232h-80zm-304 0c-4.858-34.073-29.304-62.1-62.4-71.544l-1.6-.456a168.801 168.801 0 0 0 91.824-128.656L112.001.001h-112v232h80z" fill="#DD1C4B"/><g transform="translate(145 17)"><circle fill="#2BB3CE" cx="89" cy="89" r="89"/><path d="M129 75.539H90.477L109.684 23 51 103.461h38.523L70.316 156z" fill="#FFD83B"/></g><path d="M312.001 326.001v-58.344a15.32 15.32 0 0 1 3.272-9.656 10.262 10.262 0 0 1 7.928-4h49.6c3.104.069 6.01 1.54 7.904 4a15.318 15.318 0 0 1 3.296 9.656v58.344h-72z" fill="#B21D48"/><path d="M372.729 266.001a10.262 10.262 0 0 0-7.928-4h-49.6c-.758.004-1.513.1-2.248.288a16.148 16.148 0 0 0-.928 5.368v66.344h64v-58.344a15.318 15.318 0 0 0-3.296-9.656z" fill="#DD1C4B"/><path d="M80.001 326.001v-58.344a15.32 15.32 0 0 1 3.272-9.656 10.262 10.262 0 0 1 7.928-4h49.6c3.104.069 6.01 1.54 7.904 4a15.318 15.318 0 0 1 3.296 9.656v58.344h-72z" fill="#B21D48"/><path d="M140.729 266.001a10.262 10.262 0 0 0-7.928-4h-49.6c-.758.004-1.513.1-2.248.288a16.148 16.148 0 0 0-.928 5.368v66.344h64v-58.344a15.318 15.318 0 0 0-3.296-9.656z" fill="#DD1C4B"/><path d="M308.361 258.001a11.866 11.866 0 0 0-8.8-4h-55.2a11.866 11.866 0 0 0-8.8 4 13.79 13.79 0 0 0-2.752 4.632 14.917 14.917 0 0 0-.888 5.024v58.344h80.08v-58.344a14.398 14.398 0 0 0-3.64-9.656z" fill="#B21D48"/><path d="M300.361 266.001a11.866 11.866 0 0 0-8.8-4h-55.2a11.312 11.312 0 0 0-3.528.632 14.917 14.917 0 0 0-.888 5.024v66.344h72v-58.344a14.4 14.4 0 0 0-3.584-9.656z" fill="#DD1C4B"/><path d="M228.361 258.001a11.866 11.866 0 0 0-8.8-4h-55.2a11.866 11.866 0 0 0-8.8 4 13.79 13.79 0 0 0-2.752 4.632 14.917 14.917 0 0 0-.888 5.024v58.344h80.08v-58.344a14.398 14.398 0 0 0-3.64-9.656z" fill="#B21D48"/><path d="M220.361 266.001a11.866 11.866 0 0 0-8.8-4h-55.2a11.312 11.312 0 0 0-3.528.632 14.917 14.917 0 0 0-.888 5.024v66.344h72v-58.344a14.4 14.4 0 0 0-3.584-9.656z" fill="#DD1C4B"/><path d="M352.001 390.001v-58.344a15.32 15.32 0 0 1 3.272-9.656 10.262 10.262 0 0 1 7.928-4h49.6c3.104.069 6.01 1.54 7.904 4a15.318 15.318 0 0 1 3.296 9.656v58.344h-72z" fill="#B21D48"/><path d="M412.729 330.001a10.262 10.262 0 0 0-7.928-4h-49.6c-.758.004-1.513.1-2.248.288a16.148 16.148 0 0 0-.928 5.368v66.344h64v-58.344a15.318 15.318 0 0 0-3.296-9.656z" fill="#DD1C4B"/><path d="M40.001 390.001v-58.344a15.32 15.32 0 0 1 3.272-9.656 10.262 10.262 0 0 1 7.928-4h49.6c3.104.069 6.01 1.54 7.904 4a15.318 15.318 0 0 1 3.296 9.656v58.344h-72z" fill="#B21D48"/><path d="M100.729 330.001a10.262 10.262 0 0 0-7.928-4h-49.6c-.758.004-1.513.1-2.248.288a16.164 16.164 0 0 0-.952 5.368v66.344h64v-58.344a15.32 15.32 0 0 0-3.272-9.656z" fill="#DD1C4B"/><path d="M188.361 322.001a11.866 11.866 0 0 0-8.8-4h-55.2a11.866 11.866 0 0 0-8.8 4 13.79 13.79 0 0 0-2.752 4.632 14.917 14.917 0 0 0-.888 5.024v58.344h80.08v-58.344a14.398 14.398 0 0 0-3.64-9.656z" fill="#B21D48"/><path d="M180.361 330.001a11.866 11.866 0 0 0-8.8-4h-55.2a11.312 11.312 0 0 0-3.528.632 14.917 14.917 0 0 0-.888 5.024v66.344h72v-58.344a14.4 14.4 0 0 0-3.584-9.656z" fill="#DD1C4B"/><path d="M268.361 322.001a11.866 11.866 0 0 0-8.8-4h-55.2a11.866 11.866 0 0 0-8.8 4 13.79 13.79 0 0 0-2.752 4.632 14.917 14.917 0 0 0-.888 5.024v58.344h80.08v-58.344a14.398 14.398 0 0 0-3.64-9.656z" fill="#B21D48"/><path d="M260.361 330.001a11.866 11.866 0 0 0-8.8-4h-55.2a11.312 11.312 0 0 0-3.528.632 14.917 14.917 0 0 0-.888 5.024v66.344h72v-58.344a14.4 14.4 0 0 0-3.584-9.656z" fill="#DD1C4B"/><path d="M348.361 322.001a11.866 11.866 0 0 0-8.8-4h-55.2a11.866 11.866 0 0 0-8.8 4 13.79 13.79 0 0 0-2.752 4.632 14.917 14.917 0 0 0-.888 5.024v58.344h80.08v-58.344a14.398 14.398 0 0 0-3.64-9.656z" fill="#B21D48"/><path d="M340.361 330.001a11.866 11.866 0 0 0-8.8-4h-55.2a11.312 11.312 0 0 0-3.528.632 14.917 14.917 0 0 0-.888 5.024v66.344h72v-58.344a14.4 14.4 0 0 0-3.584-9.656z" fill="#DD1C4B"/><g fill="#B21D48"><path d="M388.361 386.001a11.866 11.866 0 0 0-8.8-4h-55.2a11.866 11.866 0 0 0-8.8 4 13.79 13.79 0 0 0-2.752 4.632 14.917 14.917 0 0 0-.888 5.024v58.344h80.08v-58.344a14.398 14.398 0 0 0-3.64-9.656z"/><path d="M392.001 454.001v-58.344a15.32 15.32 0 0 1 3.272-9.656 10.262 10.262 0 0 1 7.928-4h49.6c3.104.069 6.01 1.54 7.904 4a15.318 15.318 0 0 1 3.296 9.656v58.344h-72zm-392 0v-58.344a15.32 15.32 0 0 1 3.272-9.656 10.262 10.262 0 0 1 7.928-4h49.6c3.104.069 6.01 1.54 7.904 4a15.318 15.318 0 0 1 3.296 9.656v58.344h-72zm308.36-68a11.866 11.866 0 0 0-8.8-4h-55.2a11.866 11.866 0 0 0-8.8 4 13.79 13.79 0 0 0-2.752 4.632 14.917 14.917 0 0 0-.888 5.024v58.344h80.08v-58.344a14.398 14.398 0 0 0-3.64-9.656z"/><path d="M228.361 386.001a11.866 11.866 0 0 0-8.8-4h-55.2a11.866 11.866 0 0 0-8.8 4 13.79 13.79 0 0 0-2.752 4.632 14.917 14.917 0 0 0-.888 5.024v58.344h80.08v-58.344a14.398 14.398 0 0 0-3.64-9.656z"/><path d="M148.361 386.001a11.866 11.866 0 0 0-8.8-4h-55.2a11.866 11.866 0 0 0-8.8 4 13.79 13.79 0 0 0-2.752 4.632 14.917 14.917 0 0 0-.888 5.024v58.344h80.08v-58.344a14.398 14.398 0 0 0-3.64-9.656z"/></g><path d="M452.729 394.001a10.262 10.262 0 0 0-7.928-4h-49.6c-.758.004-1.513.1-2.248.288a16.148 16.148 0 0 0-.928 5.368v58.344h64v-50.344a15.318 15.318 0 0 0-3.296-9.656zm-392 0a10.262 10.262 0 0 0-7.928-4h-49.6c-.758.004-1.513.1-2.248.288a16.164 16.164 0 0 0-.952 5.368v58.344h64v-50.344a15.32 15.32 0 0 0-3.272-9.656zm319.632 0a11.866 11.866 0 0 0-8.8-4h-55.2a11.312 11.312 0 0 0-3.528.632 14.917 14.917 0 0 0-.888 5.024v58.344h72v-50.344a14.4 14.4 0 0 0-3.584-9.656zm-80 0a11.866 11.866 0 0 0-8.8-4h-55.2a11.312 11.312 0 0 0-3.528.632 14.917 14.917 0 0 0-.888 5.024v58.344h72v-50.344a14.4 14.4 0 0 0-3.584-9.656zm-80 0a11.866 11.866 0 0 0-8.8-4h-55.2a11.312 11.312 0 0 0-3.528.632 14.917 14.917 0 0 0-.888 5.024v58.344h72v-50.344a14.4 14.4 0 0 0-3.584-9.656zm-80 0a11.866 11.866 0 0 0-8.8-4h-55.2a11.312 11.312 0 0 0-3.528.632 14.917 14.917 0 0 0-.888 5.024v58.344h72v-50.344a14.4 14.4 0 0 0-3.584-9.656z" fill="#DD1C4B"/></g></svg>