<?xml version="1.0" encoding="UTF-8"?>
<svg width="464px" height="454px" viewBox="0 0 464 454" version="1.1" xmlns="http://www.w3.org/2000/svg" xmlns:xlink="http://www.w3.org/1999/xlink">
    <!-- Generator: Sketch 50 (54983) - http://www.bohemiancoding.com/sketch -->
    <title>cinema (1)</title>
    <desc>Created with Sketch.</desc>
    <defs></defs>
    <g id="Page-1" stroke="none" stroke-width="1" fill="none" fill-rule="evenodd">
        <g id="cinema-(1)" fill-rule="nonzero">
            <polygon id="Shape" fill="#7FCCCB" points="0.001 0.001 464.001 0.001 464.001 233.001 0.001 233.001"></polygon>
            <path d="M464.001,233.001 L0.001,233.001 L195.393,201.606407 C309.197,183.325616 408.553,108.752671 464.001,0.001 L464.001,233.001 Z" id="Shape" fill="#2BB3CE"></path>
            <g id="Group" fill="#DD1C4B">
                <path d="M384.001,232.001 C388.859,197.928 413.305,169.901 446.401,160.457 L448.001,160.001 C397.965,134.981 363.575,86.797 356.177,31.345 L352.001,0.001 L464.001,0.001 L464.001,232.001 L384.001,232.001 Z" id="Shape"></path>
                <path d="M80.001,232.001 C75.143,197.928 50.697,169.901 17.601,160.457 L16.001,160.001 C66.037,134.981 100.427,86.797 107.825,31.345 L112.001,0.001 L0.001,0.001 L0.001,232.001 L80.001,232.001 Z" id="Shape"></path>
            </g>
            <g id="Group" transform="translate(145.000000, 17.000000)">
                <g id="lightning">
                    <circle id="Oval" fill="#2BB3CE" cx="89" cy="89" r="89"></circle>
                    <g id="light" transform="translate(51.000000, 23.000000)" fill="#FFD83B">
                        <polygon id="Shape" points="78 52.5385123 39.4766295 52.5385123 58.6839623 0 0 80.4614877 38.5233705 80.4614877 19.3160377 133"></polygon>
                    </g>
                </g>
            </g>
            <g id="Group-2" transform="translate(0.000000, 254.000000)">
                <path d="M312.001,72.001 L312.001,13.657 C311.957,10.159 313.112,6.752 315.273,4.001 C317.172,1.534 320.088,0.063 323.201,0.001 L372.801,0.001 C375.905,0.07 378.811,1.541 380.705,4.001 C382.875,6.749 384.038,10.156 384.001,13.657 L384.001,72.001 L312.001,72.001 Z" id="Shape" fill="#B21D48"></path>
                <path d="M372.729,12.001 C370.83,9.534 367.914,8.063 364.801,8.001 L315.201,8.001 C314.443,8.005 313.688,8.101 312.953,8.289 C312.342,10.013 312.028,11.828 312.025,13.657 L312.025,80.001 L376.025,80.001 L376.025,21.657 C376.062,18.156 374.899,14.749 372.729,12.001 Z" id="Shape" fill="#DD1C4B"></path>
                <path d="M80.001,72.001 L80.001,13.657 C79.957,10.159 81.112,6.752 83.273,4.001 C85.172,1.534 88.088,0.063 91.201,0.001 L140.801,0.001 C143.905,0.07 146.811,1.541 148.705,4.001 C150.875,6.749 152.038,10.156 152.001,13.657 L152.001,72.001 L80.001,72.001 Z" id="Shape" fill="#B21D48"></path>
                <path d="M140.729,12.001 C138.83,9.534 135.914,8.063 132.801,8.001 L83.201,8.001 C82.443,8.005 81.688,8.101 80.953,8.289 C80.342,10.013 80.028,11.828 80.025,13.657 L80.025,80.001 L144.025,80.001 L144.025,21.657 C144.062,18.156 142.899,14.749 140.729,12.001 Z" id="Shape" fill="#DD1C4B"></path>
                <path d="M308.361,4.001 C306.128,1.479 302.929,0.025 299.561,0.001 L244.361,0.001 C240.993,0.025 237.794,1.479 235.561,4.001 C234.348,5.349 233.413,6.923 232.809,8.633 C232.227,10.244 231.926,11.944 231.921,13.657 L231.921,72.001 L312.001251,72.001 L312.001,13.657 C312.022,10.099 310.726,6.659 308.361,4.001 Z" id="Shape" fill="#B21D48"></path>
                <path d="M300.361,12.001 C298.128,9.479 294.929,8.025 291.561,8.001 L236.361,8.001 C235.159,8.023 233.968,8.236 232.833,8.633 C232.251,10.244 231.95,11.944 231.945,13.657 L231.945,80.001 L303.945,80.001 L303.945,21.657 C303.982,18.107 302.705,14.668 300.361,12.001 Z" id="Shape" fill="#DD1C4B"></path>
                <path d="M228.361,4.001 C226.128,1.479 222.929,0.025 219.561,0.001 L164.361,0.001 C160.993,0.025 157.794,1.479 155.561,4.001 C154.348,5.349 153.413,6.923 152.809,8.633 C152.227,10.244 151.926,11.944 151.921,13.657 L151.921,72.001 L232.001251,72.001 L232.001,13.657 C232.022,10.099 230.726,6.659 228.361,4.001 Z" id="Shape" fill="#B21D48"></path>
                <path d="M220.361,12.001 C218.128,9.479 214.929,8.025 211.561,8.001 L156.361,8.001 C155.159,8.023 153.968,8.236 152.833,8.633 C152.251,10.244 151.95,11.944 151.945,13.657 L151.945,80.001 L223.945,80.001 L223.945,21.657 C223.982,18.107 222.705,14.668 220.361,12.001 Z" id="Shape" fill="#DD1C4B"></path>
                <path d="M352.001,136.001 L352.001,77.657 C351.957,74.159 353.112,70.752 355.273,68.001 C357.172,65.534 360.088,64.063 363.201,64.001 L412.801,64.001 C415.905,64.07 418.811,65.541 420.705,68.001 C422.875,70.749 424.038,74.156 424.001,77.657 L424.001,136.001 L352.001,136.001 Z" id="Shape" fill="#B21D48"></path>
                <path d="M412.729,76.001 C410.83,73.534 407.914,72.063 404.801,72.001 L355.201,72.001 C354.443,72.005 353.688,72.101 352.953,72.289 C352.342,74.013 352.028,75.828 352.025,77.657 L352.025,144.001 L416.025,144.001 L416.025,85.657 C416.062,82.156 414.899,78.749 412.729,76.001 Z" id="Shape" fill="#DD1C4B"></path>
                <path d="M40.001,136.001 L40.001,77.657 C39.957,74.159 41.112,70.752 43.273,68.001 C45.172,65.534 48.088,64.063 51.201,64.001 L100.801,64.001 C103.905,64.07 106.811,65.541 108.705,68.001 C110.875,70.749 112.038,74.156 112.001,77.657 L112.001,136.001 L40.001,136.001 Z" id="Shape" fill="#B21D48"></path>
                <path d="M100.729,76.001 C98.83,73.534 95.914,72.063 92.801,72.001 L43.201,72.001 C42.443,72.005 41.688,72.101 40.953,72.289 C40.334,74.012 40.012,75.827 40.001,77.657 L40.001,144.001 L104.001,144.001 L104.001,85.657 C104.045,82.159 102.89,78.752 100.729,76.001 Z" id="Shape" fill="#DD1C4B"></path>
                <path d="M188.361,68.001 C186.128,65.479 182.929,64.025 179.561,64.001 L124.361,64.001 C120.993,64.025 117.794,65.479 115.561,68.001 C114.348,69.349 113.413,70.923 112.809,72.633 C112.227,74.244 111.926,75.944 111.921,77.657 L111.921,136.001 L192.001251,136.001 L192.001,77.657 C192.022,74.099 190.726,70.659 188.361,68.001 Z" id="Shape" fill="#B21D48"></path>
                <path d="M180.361,76.001 C178.128,73.479 174.929,72.025 171.561,72.001 L116.361,72.001 C115.159,72.023 113.968,72.236 112.833,72.633 C112.251,74.244 111.95,75.944 111.945,77.657 L111.945,144.001 L183.945,144.001 L183.945,85.657 C183.982,82.107 182.705,78.668 180.361,76.001 Z" id="Shape" fill="#DD1C4B"></path>
                <path d="M268.361,68.001 C266.128,65.479 262.929,64.025 259.561,64.001 L204.361,64.001 C200.993,64.025 197.794,65.479 195.561,68.001 C194.348,69.349 193.413,70.923 192.809,72.633 C192.227,74.244 191.926,75.944 191.921,77.657 L191.921,136.001 L272.001251,136.001 L272.001,77.657 C272.022,74.099 270.726,70.659 268.361,68.001 Z" id="Shape" fill="#B21D48"></path>
                <path d="M260.361,76.001 C258.128,73.479 254.929,72.025 251.561,72.001 L196.361,72.001 C195.159,72.023 193.968,72.236 192.833,72.633 C192.251,74.244 191.95,75.944 191.945,77.657 L191.945,144.001 L263.945,144.001 L263.945,85.657 C263.982,82.107 262.705,78.668 260.361,76.001 Z" id="Shape" fill="#DD1C4B"></path>
                <path d="M348.361,68.001 C346.128,65.479 342.929,64.025 339.561,64.001 L284.361,64.001 C280.993,64.025 277.794,65.479 275.561,68.001 C274.348,69.349 273.413,70.923 272.809,72.633 C272.227,74.244 271.926,75.944 271.921,77.657 L271.921,136.001 L352.001251,136.001 L352.001,77.657 C352.022,74.099 350.726,70.659 348.361,68.001 Z" id="Shape" fill="#B21D48"></path>
                <path d="M340.361,76.001 C338.128,73.479 334.929,72.025 331.561,72.001 L276.361,72.001 C275.159,72.023 273.968,72.236 272.833,72.633 C272.251,74.244 271.95,75.944 271.945,77.657 L271.945,144.001 L343.945,144.001 L343.945,85.657 C343.982,82.107 342.705,78.668 340.361,76.001 Z" id="Shape" fill="#DD1C4B"></path>
                <g id="Group" transform="translate(0.000000, 128.000000)" fill="#B21D48">
                    <path d="M388.361,4.001 C386.128,1.479 382.929,0.025 379.561,0.001 L324.361,0.001 C320.993,0.025 317.794,1.479 315.561,4.001 C314.348,5.349 313.413,6.923 312.809,8.633 C312.227,10.244 311.926,11.944 311.921,13.657 L311.921,72.001 L392.001251,72.001 L392.001,13.657 C392.022,10.099 390.726,6.659 388.361,4.001 Z" id="Shape"></path>
                    <path d="M392.001,72.001 L392.001,13.657 C391.957,10.159 393.112,6.752 395.273,4.001 C397.172,1.534 400.088,0.063 403.201,0.001 L452.801,0.001 C455.905,0.07 458.811,1.541 460.705,4.001 C462.875,6.749 464.038,10.156 464.001,13.657 L464.001,72.001 L392.001,72.001 Z" id="Shape"></path>
                    <path d="M0.001,72.001 L0.001,13.657 C-0.043,10.159 1.112,6.752 3.273,4.001 C5.172,1.534 8.088,0.063 11.201,0.001 L60.801,0.001 C63.905,0.07 66.811,1.541 68.705,4.001 C70.875,6.749 72.038,10.156 72.001,13.657 L72.001,72.001 L0.001,72.001 Z" id="Shape"></path>
                    <path d="M308.361,4.001 C306.128,1.479 302.929,0.025 299.561,0.001 L244.361,0.001 C240.993,0.025 237.794,1.479 235.561,4.001 C234.348,5.349 233.413,6.923 232.809,8.633 C232.227,10.244 231.926,11.944 231.921,13.657 L231.921,72.001 L312.001251,72.001 L312.001,13.657 C312.022,10.099 310.726,6.659 308.361,4.001 Z" id="Shape"></path>
                    <path d="M228.361,4.001 C226.128,1.479 222.929,0.025 219.561,0.001 L164.361,0.001 C160.993,0.025 157.794,1.479 155.561,4.001 C154.348,5.349 153.413,6.923 152.809,8.633 C152.227,10.244 151.926,11.944 151.921,13.657 L151.921,72.001 L232.001251,72.001 L232.001,13.657 C232.022,10.099 230.726,6.659 228.361,4.001 Z" id="Shape"></path>
                    <path d="M148.361,4.001 C146.128,1.479 142.929,0.025 139.561,0.001 L84.361,0.001 C80.993,0.025 77.794,1.479 75.561,4.001 C74.348,5.349 73.413,6.923 72.809,8.633 C72.227,10.244 71.926,11.944 71.921,13.657 L71.921,72.001 L152.001251,72.001 L152.001,13.657 C152.022,10.099 150.726,6.659 148.361,4.001 Z" id="Shape"></path>
                </g>
                <g id="Group" transform="translate(0.000000, 136.000000)" fill="#DD1C4B">
                    <path d="M452.729,4.001 C450.83,1.534 447.914,0.063 444.801,0.001 L395.201,0.001 C394.443,0.005 393.688,0.101 392.953,0.289 C392.342,2.013 392.028,3.828 392.025,5.657 L392.025,64.001 L456.025,64.001 L456.025,13.657 C456.062,10.156 454.899,6.749 452.729,4.001 Z" id="Shape"></path>
                    <path d="M60.729,4.001 C58.83,1.534 55.914,0.063 52.801,0.001 L3.201,0.001 C2.443,0.005 1.688,0.101 0.953,0.289 C0.334,2.012 0.012,3.827 0.001,5.657 L0.001,64.001 L64.001,64.001 L64.001,13.657 C64.045,10.159 62.89,6.752 60.729,4.001 Z" id="Shape"></path>
                    <path d="M380.361,4.001 C378.128,1.479 374.929,0.025 371.561,0.001 L316.361,0.001 C315.159,0.023 313.968,0.236 312.833,0.633 C312.251,2.244 311.95,3.944 311.945,5.657 L311.945,64.001 L383.945,64.001 L383.945,13.657 C383.982,10.107 382.705,6.668 380.361,4.001 Z" id="Shape"></path>
                    <path d="M300.361,4.001 C298.128,1.479 294.929,0.025 291.561,0.001 L236.361,0.001 C235.159,0.023 233.968,0.236 232.833,0.633 C232.251,2.244 231.95,3.944 231.945,5.657 L231.945,64.001 L303.945,64.001 L303.945,13.657 C303.982,10.107 302.705,6.668 300.361,4.001 Z" id="Shape"></path>
                    <path d="M220.361,4.001 C218.128,1.479 214.929,0.025 211.561,0.001 L156.361,0.001 C155.159,0.023 153.968,0.236 152.833,0.633 C152.251,2.244 151.95,3.944 151.945,5.657 L151.945,64.001 L223.945,64.001 L223.945,13.657 C223.982,10.107 222.705,6.668 220.361,4.001 Z" id="Shape"></path>
                    <path d="M140.361,4.001 C138.128,1.479 134.929,0.025 131.561,0.001 L76.361,0.001 C75.159,0.023 73.968,0.236 72.833,0.633 C72.251,2.244 71.95,3.944 71.945,5.657 L71.945,64.001 L143.945,64.001 L143.945,13.657 C143.982,10.107 142.705,6.668 140.361,4.001 Z" id="Shape"></path>
                </g>
            </g>
        </g>
    </g>
</svg>