<svg width="90" height="82" xmlns="http://www.w3.org/2000/svg"><g fill="#d6d6d6"><path d="M88.937 1.152c-1.366-1.373-3.756-1.375-5.127 0L60.393 24.569 50.026 14.198c-1.374-1.376-3.765-1.37-5.127-.004a3.594 3.594 0 0 0-1.067 2.563c0 .97.377 1.883 1.065 2.569l5.091 5.091s6.539 6.315 7.952 7.729c1.372 1.372 3.757 1.372 5.129 0l10.369-10.369 5.13-5.128 10.367-10.37a3.604 3.604 0 0 0 1.064-2.569c0-.968-.378-1.878-1.062-2.558zM36.656 33.607C20.668 33.607 6.81 43.416 0 57.744c6.81 14.328 20.668 24.135 36.656 24.135 15.987 0 29.845-9.807 36.656-24.135-6.811-14.328-20.668-24.137-36.656-24.137zM54.729 69.08c-5.413 3.637-11.662 5.561-18.073 5.561-6.412 0-12.661-1.924-18.074-5.561-4.308-2.894-7.957-6.771-10.698-11.336 2.741-4.565 6.391-8.443 10.697-11.338 5.413-3.637 11.662-5.559 18.074-5.559 6.412 0 12.661 1.921 18.074 5.559 4.308 2.895 7.959 6.772 10.699 11.338-2.74 4.565-6.391 8.443-10.699 11.336z"/><circle cx="36.656" cy="57.744" r="14.907"/></g></svg>